<?xml version="1.0" standalone="no"?>
<!DOCTYPE svg PUBLIC "-//W3C//DTD SVG 20010904//EN"
 "http://www.w3.org/TR/2001/REC-SVG-20010904/DTD/svg10.dtd">
<svg version="1.0" xmlns="http://www.w3.org/2000/svg"
 width="150.000000pt" height="148.000000pt" viewBox="0 0 150.000000 148.000000"
 preserveAspectRatio="xMidYMid meet">

<g transform="translate(0.000000,148.000000) scale(0.100000,-0.100000)"
fill="#000000" stroke="none">
<path d="M320 894 c0 -385 3 -484 12 -478 7 4 52 39 101 77 57 46 87 76 87 89
0 15 -5 19 -20 15 -11 -3 -23 -1 -26 4 -3 5 -10 7 -15 4 -5 -4 -9 0 -10 7 0 7
-4 4 -9 -7 -5 -12 -9 122 -9 323 l-1 342 173 0 c265 0 360 -32 493 -166 l70
-71 119 89 c66 48 117 88 114 88 -3 0 -45 -16 -93 -35 l-88 -36 -68 65 c-81
76 -200 139 -305 161 -49 10 -137 15 -297 15 l-228 0 0 -486z"/>
<path d="M1239 980 l-37 -30 19 -61 c13 -43 19 -88 18 -152 -1 -80 -15 -182
-18 -134 -1 18 -21 24 -21 6 0 -7 -12 -10 -30 -7 -27 4 -32 0 -57 -51 -67
-133 -202 -230 -348 -251 -79 -11 -205 -13 -229 -4 -12 5 -16 21 -16 75 l0 69
-102 -73 c-151 -107 -248 -181 -244 -184 2 -2 29 8 61 22 84 37 85 36 85 -45
l0 -70 228 0 c265 0 327 10 450 70 239 119 385 387 351 650 -11 89 -46 200
-62 200 -7 -1 -28 -14 -48 -30z"/>
</g>
</svg>
